# File created by Blade
# Date/Time:  Wed Jan 21 17:21:31 2015
# Frame Rate: 120.000 fps
#------------------------------------------------------
:FULLY-SPECIFIED
:DEGREES
824
root 18.517705 13.987067 -24.238378 -153.265538 20.047824 -196.647650
Spine -18.256574 18.651900 -30.740610
Head -24.541867 -10.282833 2.108161
LeftShoulder -4.377152 -0.990699 5.001579
LeftArm -97.891621 47.594313 -147.013484
LeftForeArm -25.879549 -0.000000 64.940802
LeftHand -23.462973 0.000000 -3.328007
LeftHandThumb1 -26.253704 0.000000 33.147579
RightShoulder -2.958479 -8.922975 11.917280
RightArm 28.024841 -45.259358 54.772003
RightForeArm -28.465495 -0.000000 23.088048
RightHand -2.465597 -0.000000 8.676629
RightHandThumb1 -24.326973 -0.000000 -32.862282
LeftUpLeg -125.925205 -5.704147 -38.684705
LeftLeg 121.099056 -0.000000 -0.000000
LeftFoot -43.741549 25.873943 -8.880947
LeftToeBase 23.143666 -0.000000 -0.000000
RightUpLeg 14.923588 -10.355603 -20.500967
RightLeg 142.499964 -0.000000 -0.000000
RightFoot 47.014662 -17.431064 -2.719582
RightToeBase 27.419333 -0.000000 -0.000000
825
root 18.522348 13.993773 -24.234481 -153.301875 20.137809 -196.614574
Spine -18.304054 18.640748 -30.813469
Head -24.533724 -10.230921 2.133671
LeftShoulder -4.392243 -0.945598 5.004768
LeftArm -97.913881 47.622776 -146.982950
LeftForeArm -25.916974 0.000000 65.044138
LeftHand -23.361523 -0.000000 -3.144225
LeftHandThumb1 -26.253704 0.000000 33.147579
RightShoulder -2.981920 -8.936792 11.941344
RightArm 27.930954 -45.399795 54.840207
RightForeArm -28.570957 0.000000 23.147158
RightHand -2.447134 -0.000000 8.778326
RightHandThumb1 -24.326973 -0.000000 -32.862282
LeftUpLeg -125.938916 -5.589455 -38.651523
LeftLeg 121.104355 -0.000000 -0.000000
LeftFoot -43.742888 25.842433 -8.893962
LeftToeBase 23.164236 -0.000000 -0.000000
RightUpLeg 14.894072 -10.341157 -20.512512
RightLeg 142.529762 -0.000000 -0.000000
RightFoot 47.020254 -17.413038 -2.741656
RightToeBase 27.359636 -0.000000 -0.000000
826
root 18.537969 13.995747 -24.229606 -153.323883 20.258888 -196.473215
Spine -18.374340 18.718524 -30.838953
Head -24.520707 -10.191504 2.207850
LeftShoulder -4.402731 -0.863511 5.049692
LeftArm -97.936445 47.707733 -146.990011
LeftForeArm -26.000586 0.000000 65.149063
LeftHand -23.345678 -0.000000 -3.151764
LeftHandThumb1 -26.253704 0.000000 33.147579
RightShoulder -3.061982 -8.972090 11.981690
RightArm 28.052734 -45.656933 54.712734
RightForeArm -28.522698 -0.000000 23.156736
RightHand -2.414040 -0.000000 8.813039
RightHandThumb1 -24.326973 -0.000000 -32.862282
LeftUpLeg -126.032041 -5.389869 -38.556855
LeftLeg 121.156318 -0.000000 -0.000000
LeftFoot -43.737022 25.809122 -8.928909
LeftToeBase 23.169798 -0.000000 -0.000000
RightUpLeg 14.852547 -10.307402 -20.406563
RightLeg 142.562499 -0.000000 -0.000000
RightFoot 47.028856 -17.435348 -2.739267
RightToeBase 27.307968 -0.000000 -0.000000
827
root 18.547596 13.999916 -24.224408 -153.370175 20.380062 -196.393231
Spine -18.432375 18.794190 -30.898541
Head -24.452392 -10.218172 2.268223
LeftShoulder -4.352355 -0.804370 5.072736
LeftArm -97.929163 47.737705 -146.960317
LeftForeArm -26.071428 -0.000000 65.250643
LeftHand -23.349287 -0.000000 -3.135627
LeftHandThumb1 -26.253704 0.000000 33.147579
RightShoulder -3.079941 -9.009830 12.001382
RightArm 27.994543 -45.744740 54.769430
RightForeArm -28.642011 -0.000000 23.183381
RightHand -2.188684 0.000000 9.037064
RightHandThumb1 -24.326973 -0.000000 -32.862282
LeftUpLeg -126.080043 -5.218298 -38.509575
LeftLeg 121.180652 -0.000000 -0.000000
LeftFoot -43.747489 25.796704 -8.980790
LeftToeBase 23.140399 -0.000000 -0.000000
RightUpLeg 14.829178 -10.254997 -20.371857
RightLeg 142.604118 -0.000000 -0.000000
RightFoot 47.008285 -17.404333 -2.743946
RightToeBase 27.379435 -0.000000 -0.000000
828
root 18.545325 14.007313 -24.219840 -153.404688 20.439362 -196.387902
Spine -18.458363 18.721557 -30.930418
Head -24.442294 -10.172291 2.254933
LeftShoulder -4.399764 -0.790189 5.058061
LeftArm -97.977571 47.742912 -146.968798
LeftForeArm -26.177853 -0.000000 65.318151
LeftHand -23.423742 -0.000000 -3.180559
LeftHandThumb1 -26.253704 0.000000 33.147579
RightShoulder -3.066019 -9.037748 11.999344
RightArm 27.983287 -45.890221 54.745652
RightForeArm -28.592560 0.000000 23.202004
RightHand -1.884999 0.000000 9.138499
RightHandThumb1 -24.326973 -0.000000 -32.862282
LeftUpLeg -126.061593 -5.165220 -38.469540
LeftLeg 121.163785 -0.000000 -0.000000
LeftFoot -43.754645 25.766087 -8.999019
LeftToeBase 23.160376 -0.000000 -0.000000
RightUpLeg 14.810243 -10.249078 -20.413302
RightLeg 142.631974 -0.000000 -0.000000
RightFoot 47.002586 -17.368623 -2.769451
RightToeBase 27.397266 -0.000000 -0.000000
829
root 18.539848 14.016003 -24.214983 -153.436974 20.485369 -196.434708
Spine -18.486062 18.625548 -31.009168
Head -24.434691 -10.138150 2.254778
LeftShoulder -4.430382 -0.753887 5.059753
LeftArm -97.989311 47.768857 -146.945646
LeftForeArm -26.220629 -0.000000 65.389680
LeftHand -23.478470 -0.000000 -3.197953
LeftHandThumb1 -26.253704 0.000000 33.147579
RightShoulder -3.065542 -9.007004 11.969367
RightArm 27.882230 -46.059714 54.826478
RightForeArm -28.728113 -0.000000 23.244412
RightHand -1.785206 -0.000000 9.181205
RightHandThumb1 -24.326973 -0.000000 -32.862282
LeftUpLeg -126.023394 -5.161479 -38.476057
LeftLeg 121.122137 -0.000000 -0.000000
LeftFoot -43.755423 25.785708 -9.026227
LeftToeBase 23.155638 -0.000000 -0.000000
RightUpLeg 14.796066 -10.274885 -20.508560
RightLeg 142.662984 -0.000000 -0.000000
RightFoot 46.981633 -17.310186 -2.796763
RightToeBase 27.306714 -0.000000 -0.000000
830
root 18.539433 14.022450 -24.209849 -153.487139 20.533685 -196.430794
Spine -18.488993 18.601661 -31.048842
Head -24.420986 -10.134569 2.278307
LeftShoulder -4.414647 -0.747712 5.053428
LeftArm -98.030354 47.775163 -146.951223
LeftForeArm -26.232841 -0.000000 65.480537
LeftHand -23.464165 -0.000000 -3.040763
LeftHandThumb1 -26.253704 0.000000 33.147579
RightShoulder -3.115182 -9.029498 11.950694
RightArm 27.927595 -46.226832 54.758007
RightForeArm -28.710591 -0.000000 23.286599
RightHand -1.738635 -0.000000 9.234309
RightHandThumb1 -24.326973 -0.000000 -32.862282
LeftUpLeg -125.989280 -5.116126 -38.441196
LeftLeg 121.093922 -0.000000 -0.000000
LeftFoot -43.761046 25.820974 -9.055007
LeftToeBase 23.152573 -0.000000 -0.000000
RightUpLeg 14.794377 -10.271099 -20.540011
RightLeg 142.683366 -0.000000 -0.000000
RightFoot 46.980773 -17.197856 -2.792095
RightToeBase 27.314999 -0.000000 -0.000000
831
root 18.538964 14.028110 -24.204916 -153.514333 20.606322 -196.432628
Spine -18.529867 18.574237 -31.118120
Head -24.396843 -10.142350 2.295430
LeftShoulder -4.415572 -0.745138 5.067194
LeftArm -98.058042 47.784435 -146.948439
LeftForeArm -26.238969 -0.000000 65.532677
LeftHand -23.458024 -0.000000 -3.072379
LeftHandThumb1 -26.253704 0.000000 33.147579
RightShoulder -3.206548 -9.197910 11.972994
RightArm 28.266160 -46.431055 54.414156
RightForeArm -28.597050 -0.000000 23.332311
RightHand -1.678678 0.000000 9.120271
RightHandThumb1 -24.326973 -0.000000 -32.862282
LeftUpLeg -125.991140 -5.072975 -38.423844
LeftLeg 121.070704 -0.000000 -0.000000
LeftFoot -43.751379 25.888224 -9.073600
LeftToeBase 23.174157 -0.000000 -0.000000
RightUpLeg 14.767017 -10.259961 -20.596826
RightLeg 142.694350 -0.000000 -0.000000
RightFoot 46.928577 -17.202128 -2.704103
RightToeBase 27.587960 -0.000000 -0.000000
832
root 18.541168 14.034661 -24.197815 -153.547540 20.688889 -196.410585
Spine -18.550530 18.542446 -31.160055
Head -24.387955 -10.103884 2.299649
LeftShoulder -4.432128 -0.754299 5.075907
LeftArm -98.050453 47.790441 -146.933712
LeftForeArm -26.247112 -0.000000 65.546633
LeftHand -23.470923 0.000000 -3.155734
LeftHandThumb1 -26.253704 0.000000 33.147579
RightShoulder -3.183186 -9.222219 11.969280
RightArm 28.229849 -46.524709 54.395644
RightForeArm -28.646048 -0.000000 23.462396
RightHand -1.766241 -0.000000 9.119402
RightHandThumb1 -24.326973 -0.000000 -32.862282
LeftUpLeg -125.991476 -4.998452 -38.390123
LeftLeg 121.044147 -0.000000 -0.000000
LeftFoot -43.746649 25.945289 -9.070421
LeftToeBase 23.067651 -0.000000 -0.000000
RightUpLeg 14.729157 -10.232337 -20.610354
RightLeg 142.710382 -0.000000 -0.000000
RightFoot 46.962081 -17.126506 -2.645371
RightToeBase 27.590508 -0.000000 -0.000000
